<?xml version="1.0" standalone="no"?>
<!DOCTYPE svg PUBLIC "-//W3C//DTD SVG 20010904//EN"
 "http://www.w3.org/TR/2001/REC-SVG-20010904/DTD/svg10.dtd">
<svg version="1.0" xmlns="http://www.w3.org/2000/svg"
 width="48.000000pt" height="48.000000pt" viewBox="0 0 48.000000 48.000000"
 preserveAspectRatio="xMidYMid meet">

<g transform="translate(0.000000,48.000000) scale(0.100000,-0.100000)"
fill="#000000" stroke="none">
<path d="M150 325 c0 -31 29 -72 60 -85 39 -16 85 1 105 41 17 32 19 59 5 59
-5 0 -10 -8 -10 -19 0 -32 -39 -71 -70 -71 -31 0 -70 39 -70 71 0 11 -4 19
-10 19 -5 0 -10 -7 -10 -15z"/>
<path d="M274 189 c-14 -13 -40 -23 -68 -26 l-46 -6 0 -68 c0 -39 4 -69 10
-69 6 0 10 26 10 59 l0 58 39 7 c43 7 86 36 80 54 -3 8 -12 5 -25 -9z"/>
<path d="M216 91 c-4 -5 -2 -12 3 -15 5 -4 12 -2 15 3 4 5 2 12 -3 15 -5 4
-12 2 -15 -3z"/>
<path d="M296 91 c-4 -5 -2 -12 3 -15 5 -4 12 -2 15 3 4 5 2 12 -3 15 -5 4
-12 2 -15 -3z"/>
</g>
</svg>
