<?xml version="1.0" standalone="no"?>
<!DOCTYPE svg PUBLIC "-//W3C//DTD SVG 20010904//EN"
 "http://www.w3.org/TR/2001/REC-SVG-20010904/DTD/svg10.dtd">
<svg version="1.0" xmlns="http://www.w3.org/2000/svg"
 width="96.000000pt" height="96.000000pt" viewBox="0 0 96.000000 96.000000"
 preserveAspectRatio="xMidYMid meet">

<g transform="translate(0.000000,96.000000) scale(0.100000,-0.100000)"
fill="#000000" stroke="none">
<path d="M623 864 c-57 -21 -127 -85 -147 -136 -11 -27 -16 -64 -15 -105 1
-35 -1 -66 -5 -70 -4 -4 -78 64 -165 151 -110 110 -164 157 -174 153 -22 -8
-30 -65 -25 -166 8 -133 56 -220 155 -278 l44 -26 -95 -97 -96 -97 0 -52 c0
-64 30 -101 81 -101 28 0 49 17 151 117 l118 117 118 -117 c102 -100 123 -117
151 -117 51 0 81 37 81 101 l0 52 -105 107 c-58 58 -105 108 -105 111 0 3 21
1 48 -4 68 -14 124 4 177 57 82 82 110 231 63 326 -41 81 -148 111 -255 74z
m167 -42 c42 -20 70 -72 70 -127 0 -88 -81 -197 -155 -211 -20 -3 -55 -1 -81
6 -42 12 -47 11 -67 -8 l-21 -22 -28 27 -28 27 21 22 c20 22 21 27 9 68 -17
60 -6 108 33 153 64 72 174 102 247 65z m-338 -339 c170 -170 308 -315 308
-323 0 -20 -20 -40 -40 -40 -8 0 -92 76 -185 170 -106 106 -177 170 -190 170
-61 1 -160 81 -190 154 -18 44 -33 176 -19 176 5 0 147 -138 316 -307z m-144
-250 c-62 -62 -120 -113 -128 -113 -20 0 -40 20 -40 39 0 9 50 66 112 128
l112 113 28 -27 28 -27 -112 -113z"/>
</g>
</svg>
