<?xml version="1.0" standalone="no"?>
<!DOCTYPE svg PUBLIC "-//W3C//DTD SVG 20010904//EN"
 "http://www.w3.org/TR/2001/REC-SVG-20010904/DTD/svg10.dtd">
<svg version="1.0" xmlns="http://www.w3.org/2000/svg"
 width="64.000000pt" height="64.000000pt" viewBox="0 0 64.000000 64.000000"
 preserveAspectRatio="xMidYMid meet">

<g transform="translate(0.000000,64.000000) scale(0.100000,-0.100000)"
fill="#000000" stroke="none">
<path d="M429 509 c-84 -60 -99 -79 -99 -124 0 -31 -6 -47 -25 -65 -23 -22
-26 -22 -44 -6 -13 12 -29 15 -57 11 -49 -7 -81 10 -105 55 -22 39 -25 100 -7
118 21 21 90 14 130 -13 41 -28 58 -78 39 -113 -7 -14 -8 -23 -1 -27 10 -6 30
34 30 61 0 65 -71 124 -150 124 -54 0 -80 -26 -80 -82 0 -87 75 -161 146 -144
15 4 32 2 40 -5 12 -10 3 -23 -56 -76 -70 -65 -85 -94 -58 -121 23 -23 48 -11
112 56 l65 67 64 -63 c67 -67 98 -77 121 -40 13 22 -9 53 -87 121 -56 49 -57
50 -77 32 -15 -14 -23 -16 -31 -8 -8 8 -2 20 23 41 29 26 33 36 31 69 -4 44
-2 48 52 89 66 51 73 50 21 -4 -43 -45 -53 -72 -25 -72 5 0 30 19 56 43 41 36
44 38 25 11 -11 -17 -28 -37 -37 -44 -18 -15 -20 -50 -3 -50 7 0 34 21 61 48
l49 47 -37 -53 c-48 -68 -69 -82 -111 -75 -20 3 -34 1 -34 -5 0 -13 60 -21 87
-11 20 7 122 133 123 152 1 22 -34 17 -63 -9 l-32 -29 28 31 c15 16 27 35 27
41 0 24 -22 24 -48 2 l-26 -24 22 29 c41 53 7 62 -59 15z m-139 -263 c0 -17
-112 -136 -128 -136 -7 0 -16 8 -19 17 -5 12 12 34 61 80 64 59 86 69 86 39z
m115 -27 c75 -61 97 -99 57 -99 -23 0 -137 115 -128 129 11 17 18 14 71 -30z"/>
</g>
</svg>
